PathFileType	4	(X/Y/Z)	E:/New_biomech_experiments/27_06_2024_Shreyas_Arm26_updated ground/Afternoon session/Neeraj_PP_27_6_24_elbow_flexion_t01.trc										
DataRate	CameraRate	NumFrames	NumMarkers	Units	OrigDataRate	OrigDataStartFrame	OrigNumFrames						
120	120	63	4	m	120	4078	6524						
Frame#	Time	r_acromion			r_humerus_epicondyle			r_radius_styloid			RHAND		
		X1	Y1	Z1	X2	Y2	Z2	X3	Y3	Z3	X4	Y4	Z4
													
4078	33.975	-0.0039	0.87851	0.23924	-0.01887	0.54021	0.27022	0.2099	0.66108	0.23566	0.26904	0.717	0.17955
4079	33.983	-0.00393	0.8785	0.23924	-0.01891	0.54019	0.27021	0.21001	0.6608	0.23569	0.26925	0.71662	0.17958
4080	33.992	-0.00396	0.87849	0.23923	-0.01895	0.54017	0.27019	0.21011	0.66052	0.23573	0.26946	0.71625	0.1796
4081	34	-0.004	0.87848	0.23923	-0.01899	0.54016	0.27017	0.21021	0.66025	0.23578	0.26968	0.71587	0.17964
4082	34.008	-0.00403	0.87847	0.23922	-0.01903	0.54014	0.27016	0.21029	0.65998	0.23584	0.26991	0.71549	0.17968
4083	34.017	-0.00407	0.87846	0.23922	-0.01907	0.54012	0.27014	0.21036	0.65972	0.23592	0.27014	0.71511	0.17972
4084	34.025	-0.00411	0.87844	0.23921	-0.01912	0.54011	0.27013	0.21042	0.65947	0.23601	0.27038	0.71472	0.17977
4085	34.033	-0.00414	0.87843	0.2392	-0.01916	0.54009	0.27011	0.21046	0.65921	0.23611	0.27062	0.71432	0.17983
4086	34.042	-0.00418	0.87842	0.2392	-0.01921	0.54007	0.2701	0.21053	0.65894	0.2362	0.27087	0.71391	0.17989
4087	34.05	-0.00422	0.8784	0.23919	-0.01926	0.54005	0.27008	0.21062	0.65865	0.23629	0.27111	0.71349	0.17996
4088	34.058	-0.00425	0.87838	0.23919	-0.01931	0.54003	0.27006	0.21073	0.65833	0.23636	0.27135	0.71307	0.18003
4089	34.067	-0.00428	0.87837	0.23918	-0.01936	0.54001	0.27005	0.21086	0.658	0.23642	0.27159	0.71263	0.1801
4090	34.075	-0.00431	0.87835	0.23918	-0.01942	0.53999	0.27003	0.211	0.65765	0.23647	0.27183	0.71219	0.18018
4091	34.083	-0.00434	0.87833	0.23918	-0.01948	0.53997	0.27	0.21114	0.6573	0.23652	0.27205	0.71175	0.18025
4092	34.092	-0.00437	0.87832	0.23917	-0.01955	0.53994	0.26998	0.21125	0.65696	0.23657	0.27228	0.71131	0.18033
4093	34.1	-0.00439	0.8783	0.23917	-0.01962	0.53992	0.26995	0.21135	0.65663	0.23662	0.2725	0.71088	0.1804
4094	34.108	-0.00442	0.87828	0.23917	-0.0197	0.53989	0.26992	0.21147	0.65629	0.23665	0.27273	0.71045	0.18047
4095	34.117	-0.00445	0.87826	0.23917	-0.01978	0.53987	0.26988	0.21159	0.65594	0.23669	0.27295	0.71003	0.18055
4096	34.125	-0.00447	0.87824	0.23917	-0.01986	0.53984	0.26985	0.21172	0.6556	0.23672	0.27317	0.7096	0.18062
4097	34.133	-0.0045	0.87821	0.23917	-0.01994	0.53982	0.26982	0.21187	0.65525	0.23674	0.2734	0.70917	0.18069
4098	34.142	-0.00453	0.87819	0.23918	-0.02002	0.53979	0.26979	0.21204	0.65488	0.23676	0.27362	0.70874	0.18076
4099	34.15	-0.00455	0.87817	0.23918	-0.0201	0.53976	0.26976	0.21221	0.65451	0.23679	0.27384	0.7083	0.18084
4100	34.158	-0.00458	0.87815	0.23918	-0.02017	0.53973	0.26974	0.21236	0.65414	0.23682	0.27405	0.70786	0.18091
4101	34.167	-0.00461	0.87813	0.23918	-0.02025	0.5397	0.26971	0.21247	0.65379	0.23687	0.27427	0.70741	0.18097
4102	34.175	-0.00463	0.8781	0.23918	-0.02032	0.53967	0.26968	0.21253	0.65345	0.23693	0.27448	0.70696	0.18104
4103	34.183	-0.00465	0.87808	0.23919	-0.0204	0.53964	0.26966	0.21257	0.65312	0.23699	0.27469	0.70651	0.1811
4104	34.192	-0.00468	0.87806	0.23919	-0.02047	0.53961	0.26963	0.21261	0.65279	0.23705	0.27489	0.70606	0.18115
4105	34.2	-0.0047	0.87804	0.23919	-0.02055	0.53958	0.2696	0.21268	0.65246	0.2371	0.2751	0.70561	0.1812
4106	34.208	-0.00472	0.87802	0.23919	-0.02063	0.53955	0.26957	0.21276	0.65213	0.23716	0.27531	0.70515	0.18124
4107	34.217	-0.00474	0.87799	0.23919	-0.02071	0.53952	0.26954	0.21285	0.6518	0.23721	0.27553	0.7047	0.18129
4108	34.225	-0.00476	0.87797	0.23919	-0.02078	0.53949	0.26951	0.21296	0.65146	0.23727	0.27576	0.70424	0.18133
4109	34.233	-0.00479	0.87795	0.23919	-0.02086	0.53945	0.26948	0.21308	0.65113	0.23732	0.27599	0.70379	0.18138
4110	34.242	-0.00481	0.87792	0.23919	-0.02093	0.53942	0.26945	0.21321	0.65079	0.23738	0.27623	0.70333	0.18144
4111	34.25	-0.00483	0.8779	0.23919	-0.021	0.53938	0.26942	0.21335	0.65044	0.23745	0.27647	0.70288	0.18149
4112	34.258	-0.00485	0.87787	0.23919	-0.02107	0.53935	0.2694	0.2135	0.65009	0.23752	0.27671	0.70242	0.18156
4113	34.267	-0.00487	0.87784	0.23919	-0.02114	0.53933	0.26937	0.21364	0.64974	0.23758	0.27695	0.70196	0.18163
4114	34.275	-0.00488	0.87782	0.23919	-0.02121	0.5393	0.26935	0.21379	0.64937	0.23765	0.27719	0.7015	0.18171
4115	34.283	-0.00489	0.87779	0.23919	-0.02128	0.53929	0.26933	0.21393	0.64901	0.23771	0.27743	0.70104	0.18178
4116	34.292	-0.0049	0.87777	0.23918	-0.02136	0.53929	0.26931	0.21407	0.64864	0.23777	0.27766	0.70058	0.18186
4117	34.3	-0.00491	0.87775	0.23918	-0.02143	0.53931	0.2693	0.21421	0.64827	0.23782	0.27789	0.70011	0.18193
4118	34.308	-0.00493	0.87774	0.23918	-0.02151	0.53934	0.26931	0.21434	0.6479	0.23786	0.27812	0.69965	0.182
4119	34.317	-0.00494	0.87773	0.23917	-0.02159	0.53938	0.26932	0.21447	0.64753	0.23791	0.27834	0.69919	0.18206
4120	34.325	-0.00495	0.87771	0.23917	-0.02166	0.53941	0.26933	0.2146	0.64718	0.23796	0.27856	0.69874	0.18213
4121	34.333	-0.00497	0.8777	0.23916	-0.02171	0.53941	0.26934	0.21472	0.64683	0.23801	0.27878	0.6983	0.18221
4122	34.342	-0.00499	0.87769	0.23915	-0.02175	0.53939	0.26935	0.21484	0.64649	0.23806	0.27899	0.69788	0.18229
4123	34.35	-0.00501	0.87767	0.23915	-0.02177	0.53936	0.26935	0.21496	0.64617	0.23812	0.2792	0.69746	0.18237
4124	34.358	-0.00502	0.87764	0.23916	-0.0218	0.53932	0.26935	0.21507	0.64586	0.23818	0.2794	0.69707	0.18245
4125	34.367	-0.00502	0.87761	0.23917	-0.02182	0.53927	0.26935	0.21517	0.64556	0.23824	0.27959	0.69669	0.18252
4126	34.375	-0.00503	0.87757	0.23918	-0.02184	0.53922	0.26935	0.21527	0.64526	0.23829	0.27977	0.69632	0.1826
4127	34.383	-0.00504	0.87753	0.23918	-0.02187	0.53917	0.26935	0.21536	0.64498	0.23835	0.27994	0.69596	0.18266
4128	34.392	-0.00504	0.87748	0.23919	-0.0219	0.53912	0.26935	0.21545	0.64471	0.23839	0.2801	0.69562	0.18273
4129	34.4	-0.00504	0.87744	0.23919	-0.02193	0.53906	0.26935	0.21552	0.64444	0.23843	0.28024	0.69528	0.18278
4130	34.408	-0.00506	0.87741	0.23919	-0.02196	0.53901	0.26934	0.21559	0.64417	0.23845	0.28038	0.69496	0.18283
4131	34.417	-0.00507	0.87737	0.2392	-0.022	0.53897	0.26934	0.21565	0.64392	0.23847	0.2805	0.69465	0.18287
4132	34.425	-0.00508	0.87734	0.2392	-0.02203	0.53893	0.26933	0.21571	0.64367	0.23848	0.28062	0.69434	0.1829
4133	34.433	-0.0051	0.87731	0.2392	-0.02207	0.53889	0.26932	0.21577	0.64342	0.23848	0.28074	0.69403	0.18291
4134	34.442	-0.00513	0.87728	0.2392	-0.02211	0.53886	0.26931	0.21583	0.64318	0.23848	0.28086	0.69372	0.18291
4135	34.45	-0.00516	0.87725	0.2392	-0.02214	0.53884	0.2693	0.2159	0.64293	0.23847	0.28097	0.69342	0.1829
4136	34.458	-0.00519	0.87722	0.2392	-0.02218	0.53882	0.26928	0.21597	0.64269	0.23847	0.28109	0.6931	0.18289
4137	34.467	-0.00522	0.87719	0.23919	-0.02221	0.53879	0.26927	0.21605	0.64244	0.23847	0.28122	0.69279	0.18288
4138	34.475	-0.00525	0.87716	0.23919	-0.02225	0.53877	0.26925	0.21614	0.64219	0.23847	0.28136	0.69247	0.18288
4139	34.483	-0.00528	0.87714	0.23918	-0.02228	0.53875	0.26923	0.21623	0.64193	0.23848	0.28151	0.69215	0.18288
4140	34.492	-0.00531	0.87712	0.23918	-0.02231	0.53873	0.26921	0.21632	0.64167	0.23848	0.28166	0.69182	0.1829
